<svg xmlns="http://www.w3.org/2000/svg" version="1.1" xmlns:xlink="http://www.w3.org/1999/xlink" xmlns:svgjs="http://svgjs.com/svgjs" width="128" height="143"><svg width="128" height="143" viewBox="0 0 128 143" fill="none" xmlns="http://www.w3.org/2000/svg">
<g filter="url(#filter0_d_2_44)">
<path d="M14.0744 43.1754L64 14.3509L113.926 43.1754V100.825L64 129.649L14.0744 100.825V43.1754Z" stroke="#BD93F9" stroke-width="11" shape-rendering="crispEdges"></path>
</g>
<g filter="url(#filter1_d_2_44)">
<path d="M40.15 55.425C40.15 50.675 42.25 46.75 46.45 43.65C50.65 40.5 56.2 38.925 63.1 38.925C66.75 38.925 70.025 39.3 72.925 40.05C75.825 40.75 78.125 41.65 79.825 42.75C81.525 43.85 82.95 45.125 84.1 46.575C86 49.075 86.925 51.875 86.875 54.975C86.875 58.025 85.675 60.75 83.275 63.15C80.875 65.55 77.975 66.8 74.575 66.9C78.825 67.2 82.5 68.6 85.6 71.1C88.75 73.6 90.325 76.75 90.325 80.55C90.325 85.55 88.4 89.45 84.55 92.25C80.7 95.05 76 96.45 70.45 96.45C64.95 96.45 61.2 95.725 59.2 94.275L61.525 87.975C63.725 89.125 66.275 89.7 69.175 89.7C72.125 89.7 74.525 88.85 76.375 87.15C78.225 85.4 79.15 83.1 79.15 80.25C79.15 77.4 77.875 75 75.325 73.05C72.825 71.1 69.4 70.125 65.05 70.125L65.725 64.575C68.725 64.575 71.25 63.875 73.3 62.475C75.4 61.025 76.475 58.875 76.525 56.025C76.625 53.175 75.35 50.775 72.7 48.825C69.85 46.775 65.95 45.75 61 45.75C57.75 45.75 54.575 46.6 51.475 48.3C48.375 49.95 46.825 52.175 46.825 54.975C46.825 56.325 47.375 57.475 48.475 58.425C49.575 59.325 51.025 59.875 52.825 60.075L52 65.625C48.2 65.475 45.275 64.4 43.225 62.4C41.175 60.4 40.15 58.075 40.15 55.425ZM61.6 81.6C60.8 86.95 59.25 90.75 56.95 93C54.65 95.2 51.95 96.3 48.85 96.3C45.75 96.3 43.4 95.5 41.8 93.9C40.2 92.3 39.4 90.25 39.4 87.75C39.4 81.85 43.875 76.825 52.825 72.675C53.075 70.575 53.425 67.75 53.875 64.2C54.375 60.6 54.75 57.7 55 55.5C55.3 53.3 55.5 51.85 55.6 51.15C57.65 49.85 60.025 49.2 62.725 49.2C63.975 49.2 65.175 49.325 66.325 49.575L61.6 81.6ZM44.95 86.775C44.95 88.575 45.8 89.475 47.5 89.475C48.2 89.475 48.925 89.025 49.675 88.125C50.475 87.175 51.025 85.7 51.325 83.7L52 79.05C47.3 81.7 44.95 84.275 44.95 86.775Z" fill="#BD93F9"></path>
</g>
<defs>
<filter id="SvgjsFilter1001" x="8.57437" y="8.4641" width="113.851" height="131.072" filterUnits="userSpaceOnUse" color-interpolation-filters="sRGB">
<feFlood flood-opacity="0" result="BackgroundImageFix"></feFlood>
<feColorMatrix in="SourceAlpha" type="matrix" values="0 0 0 0 0 0 0 0 0 0 0 0 0 0 0 0 0 0 127 0" result="hardAlpha"></feColorMatrix>
<feOffset dx="2" dy="3"></feOffset>
<feGaussianBlur stdDeviation="0.5"></feGaussianBlur>
<feComposite in2="hardAlpha" operator="out"></feComposite>
<feColorMatrix type="matrix" values="0 0 0 0 0 0 0 0 0 0 0 0 0 0 0 0 0 0 0.25 0"></feColorMatrix>
<feBlend mode="normal" in2="BackgroundImageFix" result="effect1_dropShadow_2_44"></feBlend>
<feBlend mode="normal" in="SourceGraphic" in2="effect1_dropShadow_2_44" result="shape"></feBlend>
</filter>
<filter id="SvgjsFilter1000" x="39.4" y="38.925" width="53.925" height="61.525" filterUnits="userSpaceOnUse" color-interpolation-filters="sRGB">
<feFlood flood-opacity="0" result="BackgroundImageFix"></feFlood>
<feColorMatrix in="SourceAlpha" type="matrix" values="0 0 0 0 0 0 0 0 0 0 0 0 0 0 0 0 0 0 127 0" result="hardAlpha"></feColorMatrix>
<feOffset dx="2" dy="3"></feOffset>
<feGaussianBlur stdDeviation="0.5"></feGaussianBlur>
<feComposite in2="hardAlpha" operator="out"></feComposite>
<feColorMatrix type="matrix" values="0 0 0 0 0 0 0 0 0 0 0 0 0 0 0 0 0 0 0.25 0"></feColorMatrix>
<feBlend mode="normal" in2="BackgroundImageFix" result="effect1_dropShadow_2_44"></feBlend>
<feBlend mode="normal" in="SourceGraphic" in2="effect1_dropShadow_2_44" result="shape"></feBlend>
</filter>
</defs>
</svg><style>@media (prefers-color-scheme: light) { :root { filter: none; } }
@media (prefers-color-scheme: dark) { :root { filter: none; } }
</style></svg>