<svg width="128" height="128" viewBox="0 0 128 128" fill="none" xmlns="http://www.w3.org/2000/svg">
<path d="M14.0744 35.1754L64 6.35085L113.926 35.1754V92.8246L64 121.649L14.0744 92.8246V35.1754Z" stroke="#BD93F9" stroke-width="11"/>
<path d="M40.15 47.425C40.15 42.675 42.25 38.75 46.45 35.65C50.65 32.5 56.2 30.925 63.1 30.925C66.75 30.925 70.025 31.3 72.925 32.05C75.825 32.75 78.125 33.65 79.825 34.75C81.525 35.85 82.95 37.125 84.1 38.575C86 41.075 86.925 43.875 86.875 46.975C86.875 50.025 85.675 52.75 83.275 55.15C80.875 57.55 77.975 58.8 74.575 58.9C78.825 59.2 82.5 60.6 85.6 63.1C88.75 65.6 90.325 68.75 90.325 72.55C90.325 77.55 88.4 81.45 84.55 84.25C80.7 87.05 76 88.45 70.45 88.45C64.95 88.45 61.2 87.725 59.2 86.275L61.525 79.975C63.725 81.125 66.275 81.7 69.175 81.7C72.125 81.7 74.525 80.85 76.375 79.15C78.225 77.4 79.15 75.1 79.15 72.25C79.15 69.4 77.875 67 75.325 65.05C72.825 63.1 69.4 62.125 65.05 62.125L65.725 56.575C68.725 56.575 71.25 55.875 73.3 54.475C75.4 53.025 76.475 50.875 76.525 48.025C76.625 45.175 75.35 42.775 72.7 40.825C69.85 38.775 65.95 37.75 61 37.75C57.75 37.75 54.575 38.6 51.475 40.3C48.375 41.95 46.825 44.175 46.825 46.975C46.825 48.325 47.375 49.475 48.475 50.425C49.575 51.325 51.025 51.875 52.825 52.075L52 57.625C48.2 57.475 45.275 56.4 43.225 54.4C41.175 52.4 40.15 50.075 40.15 47.425ZM61.6 73.6C60.8 78.95 59.25 82.75 56.95 85C54.65 87.2 51.95 88.3 48.85 88.3C45.75 88.3 43.4 87.5 41.8 85.9C40.2 84.3 39.4 82.25 39.4 79.75C39.4 73.85 43.875 68.825 52.825 64.675C53.075 62.575 53.425 59.75 53.875 56.2C54.375 52.6 54.75 49.7 55 47.5C55.3 45.3 55.5 43.85 55.6 43.15C57.65 41.85 60.025 41.2 62.725 41.2C63.975 41.2 65.175 41.325 66.325 41.575L61.6 73.6ZM44.95 78.775C44.95 80.575 45.8 81.475 47.5 81.475C48.2 81.475 48.925 81.025 49.675 80.125C50.475 79.175 51.025 77.7 51.325 75.7L52 71.05C47.3 73.7 44.95 76.275 44.95 78.775Z" fill="#BD93F9"/>
</svg>
