<?xml version="1.0" standalone="no"?>
<!DOCTYPE svg PUBLIC "-//W3C//DTD SVG 20010904//EN"
 "http://www.w3.org/TR/2001/REC-SVG-20010904/DTD/svg10.dtd">
<svg version="1.0" xmlns="http://www.w3.org/2000/svg"
 width="572.000000pt" height="572.000000pt" viewBox="0 0 572.000000 572.000000"
 preserveAspectRatio="xMidYMid meet">
<metadata>
Created by potrace 1.14, written by Peter Selinger 2001-2017
</metadata>
<g transform="translate(0.000000,572.000000) scale(0.100000,-0.100000)"
fill="#000000" stroke="none">
<path d="M2835 5382 c-11 -2 -31 -12 -45 -22 -14 -9 -101 -61 -195 -114 -93
-54 -177 -101 -185 -107 -75 -45 -243 -139 -251 -139 -5 0 -9 -4 -9 -9 0 -5
-8 -11 -17 -14 -10 -4 -38 -18 -63 -33 -25 -14 -151 -87 -280 -162 -129 -74
-271 -156 -315 -182 -68 -40 -177 -103 -325 -188 -284 -162 -495 -286 -501
-293 -3 -5 -5 -583 -5 -1284 l1 -1275 38 -23 c21 -13 34 -27 30 -32 -4 -4 -3
-5 4 -2 17 10 74 -25 68 -42 -5 -11 -3 -12 10 -1 14 12 19 7 16 -13 -1 -5 3
-6 8 -3 10 7 74 -25 104 -52 9 -8 17 -12 17 -8 0 15 40 -16 41 -32 0 -9 3 -12
5 -5 4 7 25 -1 64 -24 33 -19 58 -38 56 -42 -2 -3 7 -7 21 -8 14 0 28 -5 32
-10 3 -4 26 -19 51 -32 25 -14 65 -37 90 -53 25 -15 57 -33 72 -39 16 -6 28
-15 28 -20 0 -5 6 -8 13 -6 6 1 11 -3 10 -10 -2 -7 4 -10 12 -7 8 4 15 1 15
-5 0 -6 6 -10 13 -8 6 1 11 -4 9 -11 -1 -8 1 -11 6 -8 14 9 62 -17 62 -34 0
-13 1 -13 10 0 5 8 10 10 10 4 0 -7 9 -14 21 -17 12 -3 18 -10 14 -16 -3 -7 0
-8 9 -5 9 3 16 1 16 -5 0 -6 3 -10 8 -9 4 0 15 -2 25 -7 15 -6 16 -10 5 -17
-9 -7 -8 -8 5 -4 23 7 60 -11 51 -26 -4 -6 -3 -8 4 -4 11 7 82 -29 94 -48 4
-6 8 -7 8 -3 0 15 60 -27 60 -43 0 -13 1 -13 10 0 9 13 14 7 11 -12 0 -4 5 -5
13 -2 7 3 21 -2 30 -11 9 -9 16 -14 16 -11 0 4 18 -5 40 -19 22 -14 44 -25 50
-25 16 0 12 -18 -7 -29 -10 -6 -13 -11 -7 -11 5 0 15 5 21 11 17 17 44 3 37
-18 -5 -14 -4 -15 4 -4 11 16 47 7 37 -9 -3 -5 0 -7 7 -5 8 3 23 -2 34 -12 11
-10 26 -19 34 -21 7 -2 20 -11 28 -20 9 -11 11 -12 6 -2 -6 11 -2 10 13 -3 11
-9 24 -17 30 -17 6 0 23 -12 38 -27 16 -16 24 -21 20 -13 -7 11 -1 9 20 -4 17
-11 43 -26 59 -34 22 -11 25 -17 15 -24 -10 -7 -8 -8 7 -3 14 4 28 -1 40 -12
10 -10 18 -16 18 -13 1 3 19 -6 41 -20 22 -13 48 -28 58 -32 11 -5 15 -13 11
-19 -4 -8 -3 -9 4 -5 7 4 43 -11 81 -33 38 -23 74 -41 80 -41 6 0 11 -4 11 -9
0 -5 18 -16 41 -25 40 -16 40 -16 86 16 26 17 52 31 60 31 7 0 13 5 13 10 0 6
3 8 6 4 3 -3 11 -1 18 4 23 19 101 69 109 69 5 0 28 13 52 30 35 24 45 27 54
16 6 -7 9 -16 6 -19 -3 -4 -2 -5 2 -2 11 8 13 36 2 29 -5 -3 -9 0 -9 5 0 6 7
11 15 11 8 0 15 4 15 9 0 6 10 8 21 6 12 -3 19 -2 16 2 -3 3 1 12 10 21 11 12
19 13 32 5 9 -6 15 -16 13 -23 -1 -6 2 -8 8 -5 8 5 6 13 -5 25 -18 20 -15 22
100 79 17 8 32 18 35 21 15 16 51 29 67 24 14 -4 15 -4 4 4 -16 12 3 27 21 16
6 -4 8 -3 5 3 -8 13 50 46 65 37 6 -4 8 -3 5 3 -4 6 7 16 23 23 17 7 30 17 30
23 0 6 3 7 7 4 3 -4 15 0 25 10 10 9 21 14 24 10 3 -3 16 5 29 19 26 28 40 31
31 7 -5 -15 -4 -15 9 1 8 11 15 23 15 27 0 6 16 12 43 17 4 1 17 11 29 22 12
11 26 20 30 20 5 0 34 16 65 36 31 19 65 40 77 45 22 9 57 30 66 39 15 15 87
47 97 43 6 -2 15 1 19 8 4 8 3 9 -4 5 -7 -4 -12 -5 -12 -2 0 3 15 14 34 23 19
10 70 38 113 63 43 24 84 43 91 42 7 -2 11 3 10 10 -2 7 5 12 14 12 10 -1 15
2 12 7 -3 5 2 9 10 9 9 0 16 5 16 11 0 5 5 7 10 4 6 -4 7 -11 4 -17 -4 -7 -2
-8 5 -4 6 4 9 11 6 16 -8 13 42 43 57 34 7 -4 10 -4 6 1 -7 7 32 45 46 45 3 0
28 14 56 30 28 17 57 27 63 24 7 -4 9 -4 5 1 -10 11 100 77 114 69 6 -4 8 -3
5 3 -4 5 6 16 21 24 15 7 48 26 73 41 l46 28 0 1197 c0 659 4 1207 9 1217 4
11 4 17 -2 14 -5 -4 -9 24 -9 64 l0 70 -260 150 c-143 82 -282 162 -310 178
-27 15 -85 49 -128 74 -43 25 -82 46 -87 46 -6 0 -10 5 -10 10 0 6 -4 10 -9
10 -5 0 -145 79 -311 175 -167 96 -305 175 -307 175 -2 0 -29 16 -59 35 -30
19 -56 35 -59 35 -3 0 -34 18 -70 40 -36 22 -67 40 -70 40 -3 0 -28 15 -57 33
-29 19 -74 46 -100 60 -124 69 -145 82 -180 104 -21 12 -40 23 -42 23 -3 0
-31 16 -64 35 -62 37 -84 44 -117 37z m72 -517 c34 -16 42 -24 38 -40 -3 -11
-2 -14 1 -7 9 20 37 15 29 -5 -5 -14 -3 -15 5 -7 9 9 19 8 41 -5 16 -9 29 -19
29 -23 0 -5 6 -8 13 -8 7 0 22 -8 33 -17 11 -10 25 -19 31 -20 6 -1 34 -16 62
-33 29 -16 56 -30 62 -30 6 0 7 -4 4 -10 -3 -5 2 -10 12 -10 10 0 29 -9 43
-20 14 -11 31 -20 38 -20 6 0 12 -4 12 -10 0 -5 5 -10 11 -10 7 0 18 -8 26
-17 8 -10 11 -12 7 -4 -5 10 2 9 24 -4 17 -10 28 -23 25 -28 -3 -5 4 -6 16 -2
23 7 28 -4 10 -22 -8 -8 -8 -13 0 -18 6 -3 10 -1 9 6 -2 6 3 14 10 16 7 3 12
-3 12 -14 0 -12 3 -14 8 -6 5 8 19 4 47 -13 22 -14 55 -32 72 -40 18 -9 30
-21 26 -27 -3 -6 -1 -7 6 -3 6 4 18 2 27 -4 8 -7 29 -21 47 -30 17 -10 31 -23
30 -29 -2 -6 3 -8 11 -5 18 7 88 -35 79 -49 -3 -6 -1 -7 5 -3 10 6 68 -18 82
-35 3 -3 20 -12 38 -20 17 -8 32 -17 32 -21 0 -5 7 -8 15 -8 8 0 15 -5 15 -11
0 -5 5 -7 10 -4 6 3 10 2 10 -3 0 -5 9 -12 21 -15 12 -3 19 -9 16 -14 -3 -4 7
-9 21 -10 15 0 28 -6 30 -12 2 -6 9 -11 17 -11 7 0 18 -7 25 -15 7 -9 15 -13
18 -11 5 6 63 -32 74 -49 4 -5 8 -6 8 -2 0 5 13 0 29 -9 17 -10 27 -22 24 -27
-3 -6 -2 -7 4 -4 9 6 100 -37 113 -52 3 -3 31 -19 62 -36 32 -16 68 -38 80
-47 l23 -17 1 -1021 1 -1022 -36 -23 c-29 -19 -335 -197 -511 -297 -19 -11
-197 -114 -395 -228 -198 -114 -376 -216 -395 -227 -19 -11 -116 -67 -215
-125 -99 -58 -190 -110 -203 -117 -21 -11 -46 1 -284 138 -143 83 -264 151
-269 151 -5 0 -9 5 -9 10 0 6 -4 10 -9 10 -5 0 -108 57 -228 126 -120 70 -238
138 -262 151 -24 14 -104 61 -178 104 -75 43 -137 79 -138 79 -2 0 -49 27
-104 60 -56 33 -105 60 -110 60 -5 0 -11 3 -13 8 -1 4 -23 18 -48 31 -25 14
-51 31 -58 38 -8 7 -18 11 -23 8 -5 -4 -9 -2 -9 3 0 5 -14 15 -30 22 -26 11
-28 15 -18 28 11 13 11 14 -1 8 -9 -6 -12 -4 -9 5 3 8 9 14 14 14 15 0 34 16
34 28 0 8 -4 7 -9 -2 -5 -8 -16 -16 -24 -17 -11 -1 -14 19 -12 115 1 113 2
116 24 115 12 -1 19 1 16 4 -2 3 0 10 5 17 7 8 5 12 -5 12 -7 0 -13 -5 -12
-10 1 -5 -5 -11 -13 -12 -13 -2 -16 8 -15 54 1 34 6 56 12 56 6 0 15 3 19 7 3
4 -2 6 -12 4 -18 -4 -19 5 -19 159 0 90 3 161 7 159 4 -3 4 5 0 18 -12 35 -9
51 11 54 11 1 22 5 25 9 4 3 -5 4 -19 2 -25 -5 -26 -4 -24 38 2 24 6 49 10 56
5 8 4 10 -3 5 -7 -4 -12 -1 -12 9 0 10 5 13 13 9 8 -5 8 -2 -2 9 -7 9 -12 17
-10 18 2 0 12 2 22 4 11 2 22 6 25 10 4 3 -5 4 -19 2 l-25 -5 1 137 c1 134 1
136 23 135 13 -1 20 1 17 4 -2 3 0 10 5 17 7 8 5 12 -5 12 -7 0 -13 -5 -12
-10 1 -5 -5 -11 -13 -12 -13 -2 -16 8 -15 54 1 34 6 56 12 56 6 0 15 3 19 7 3
4 -2 6 -12 4 -18 -4 -19 5 -19 159 0 90 3 161 7 159 4 -3 4 5 0 18 -12 35 -9
51 11 54 11 1 22 5 25 9 4 3 -5 4 -19 2 -25 -5 -26 -4 -24 38 2 24 6 49 10 56
5 8 4 10 -3 5 -7 -4 -12 -1 -12 9 0 10 5 13 12 9 9 -5 9 -2 -1 9 -7 9 -12 17
-10 18 2 0 12 2 22 4 11 2 22 6 25 10 4 3 -5 4 -19 2 -25 -5 -25 -4 -24 59 0
35 3 64 7 64 5 0 11 0 14 -1 4 0 11 5 15 13 7 10 9 10 9 -2 1 -9 5 -6 10 8 5
12 16 22 25 22 8 0 15 4 15 9 0 5 11 12 25 15 14 4 25 11 25 16 0 6 9 10 20
10 11 0 20 5 20 10 0 6 6 10 14 10 7 0 19 7 26 15 7 9 19 14 27 11 8 -3 12 -2
9 2 -2 4 9 15 25 25 17 9 27 13 24 7 -3 -5 0 -12 6 -16 7 -4 9 -3 5 4 -6 11
30 52 46 52 15 0 23 -5 20 -13 -1 -5 2 -6 7 -2 6 3 7 13 4 22 -5 13 -2 15 11
10 9 -4 15 -3 12 2 -3 5 9 16 27 26 17 9 55 30 82 46 28 16 58 32 68 35 9 4
17 10 17 14 0 4 8 10 18 14 9 3 23 9 31 12 10 5 11 2 6 -7 -5 -8 -4 -11 1 -6
5 5 9 14 9 20 1 7 6 11 13 10 7 -2 12 2 12 8 0 5 4 8 9 4 6 -3 14 3 20 12 6
10 11 14 11 8 0 -6 3 -6 8 1 9 13 168 104 182 104 5 0 10 5 10 12 0 6 3 9 6 5
4 -3 13 1 21 9 8 8 18 12 23 9 4 -3 11 2 14 11 4 9 13 14 21 10 9 -3 15 0 15
7 0 7 16 19 35 27 19 8 35 18 35 23 0 5 8 3 17 -4 10 -9 14 -9 10 -2 -8 13 61
63 88 63 8 0 15 5 15 10 0 6 10 14 23 19 13 5 52 27 87 49 59 38 90 46 74 20
-4 -7 -2 -8 4 -4 6 4 8 14 5 23 -5 13 -2 15 12 9 11 -4 16 -4 12 0 -11 11 50
44 70 38 15 -5 16 -4 3 5 -14 10 -13 12 10 15 6 0 15 8 20 16 5 8 10 11 10 7
0 -5 10 -1 21 7 12 8 29 12 38 9 12 -4 13 -3 2 5 -17 12 3 27 25 18 8 -3 13
-2 10 2 -5 8 93 72 104 68 3 -1 24 -10 47 -21z"/>
<path d="M2815 4840 c-3 -5 -1 -10 4 -10 6 0 11 5 11 10 0 6 -2 10 -4 10 -3 0
-8 -4 -11 -10z"/>
<path d="M2771 4807 c-13 -21 -12 -21 5 -5 10 10 16 20 13 22 -3 3 -11 -5 -18
-17z"/>
<path d="M2903 4802 c10 -10 14 -22 10 -27 -5 -4 -2 -5 5 -1 11 6 10 12 -4 27
-9 10 -19 19 -22 19 -3 0 2 -8 11 -18z"/>
<path d="M2830 4798 c0 -6 3 -8 7 -5 3 4 11 2 18 -3 8 -7 12 -6 12 3 0 7 -9
14 -19 14 -10 1 -18 -3 -18 -9z"/>
<path d="M2995 4791 c-3 -5 -2 -12 3 -15 5 -3 9 1 9 9 0 17 -3 19 -12 6z"/>
<path d="M2674 4748 l-19 -23 22 18 c21 18 49 15 38 -3 -3 -5 -1 -11 4 -14 11
-7 9 13 -2 32 -12 17 -21 15 -43 -10z"/>
<path d="M2853 4755 c0 -8 4 -12 9 -9 5 3 6 10 3 15 -9 13 -12 11 -12 -6z"/>
<path d="M2739 4713 c-13 -16 -12 -17 4 -4 16 13 21 21 13 21 -2 0 -10 -8 -17
-17z"/>
<path d="M2810 4721 c0 -6 4 -13 10 -16 6 -3 7 1 4 9 -7 18 -14 21 -14 7z"/>
<path d="M2670 4696 c7 -7 13 -7 20 0 6 6 3 10 -10 10 -13 0 -16 -4 -10 -10z"/>
<path d="M2556 4675 c-9 -26 -7 -32 5 -12 6 10 9 21 6 23 -2 3 -7 -2 -11 -11z"/>
<path d="M2630 4679 c0 -5 5 -7 10 -4 6 3 10 8 10 11 0 2 -4 4 -10 4 -5 0 -10
-5 -10 -11z"/>
<path d="M2624 4638 l-19 -23 23 19 c12 11 22 21 22 23 0 8 -8 2 -26 -19z"/>
<path d="M2517 4635 c-4 -8 -3 -16 1 -19 4 -3 9 4 9 15 2 23 -3 25 -10 4z"/>
<path d="M2433 4627 c0 -8 6 -14 14 -14 9 0 10 4 2 14 -6 7 -12 13 -14 13 -1
0 -2 -6 -2 -13z"/>
<path d="M2470 4626 c0 -2 7 -7 16 -10 8 -3 12 -2 9 4 -6 10 -25 14 -25 6z"/>
<path d="M2650 4620 c0 -5 5 -10 11 -10 5 0 7 5 4 10 -3 6 -8 10 -11 10 -2 0
-4 -4 -4 -10z"/>
<path d="M2406 4602 c-3 -5 1 -9 9 -9 8 0 12 4 9 9 -3 4 -7 8 -9 8 -2 0 -6 -4
-9 -8z"/>
<path d="M2535 4599 c-3 -4 2 -6 10 -5 21 3 28 13 10 13 -9 0 -18 -4 -20 -8z"/>
<path d="M2595 4580 c3 -5 8 -10 11 -10 2 0 4 5 4 10 0 6 -5 10 -11 10 -5 0
-7 -4 -4 -10z"/>
<path d="M3290 4586 c0 -2 7 -7 16 -10 8 -3 12 -2 9 4 -6 10 -25 14 -25 6z"/>
<path d="M2414 4569 c-3 -6 -2 -15 3 -20 5 -5 9 -1 9 11 0 23 -2 24 -12 9z"/>
<path d="M2454 4560 c0 -13 4 -16 10 -10 7 7 7 13 0 20 -6 6 -10 3 -10 -10z"/>
<path d="M2350 4559 c0 -5 5 -7 10 -4 6 3 10 8 10 11 0 2 -4 4 -10 4 -5 0 -10
-5 -10 -11z"/>
<path d="M2525 4560 c-3 -6 1 -7 9 -4 18 7 21 14 7 14 -6 0 -13 -4 -16 -10z"/>
<path d="M2279 4533 c-13 -16 -12 -17 4 -4 16 13 21 21 13 21 -2 0 -10 -8 -17
-17z"/>
<path d="M2316 4542 c-3 -5 1 -9 9 -9 8 0 12 4 9 9 -3 4 -7 8 -9 8 -2 0 -6 -4
-9 -8z"/>
<path d="M2320 4500 c-9 -6 -10 -10 -3 -10 6 0 15 5 18 10 8 12 4 12 -15 0z"/>
<path d="M2387 4499 c7 -7 15 -10 18 -7 3 3 -2 9 -12 12 -14 6 -15 5 -6 -5z"/>
<path d="M2176 4482 c-3 -4 4 -9 15 -9 23 -2 25 3 4 10 -8 4 -16 3 -19 -1z"/>
<path d="M2350 4481 c0 -6 4 -13 10 -16 6 -3 7 1 4 9 -7 18 -14 21 -14 7z"/>
<path d="M3526 4482 c-3 -5 1 -9 9 -9 8 0 12 4 9 9 -3 4 -7 8 -9 8 -2 0 -6 -4
-9 -8z"/>
<path d="M2279 4453 c-13 -16 -12 -17 4 -4 9 7 17 15 17 17 0 8 -8 3 -21 -13z"/>
<path d="M2315 4461 c-3 -5 -2 -12 3 -15 5 -3 9 1 9 9 0 17 -3 19 -12 6z"/>
<path d="M2217 4453 c-10 -9 -9 -23 1 -23 5 0 9 7 9 15 0 17 -1 18 -10 8z"/>
<path d="M3635 4410 c-4 -6 -12 -7 -18 -4 -7 4 -8 3 -4 -1 13 -15 34 -14 34 1
0 17 -4 18 -12 4z"/>
<path d="M2176 4401 c8 -8 43 -8 38 0 -2 4 -13 7 -24 6 -10 -1 -17 -3 -14 -6z"/>
<path d="M2230 4398 c0 -4 4 -8 9 -8 6 0 12 4 15 8 3 5 -1 9 -9 9 -8 0 -15 -4
-15 -9z"/>
<path d="M2077 4372 c-15 -16 -15 -19 -2 -19 8 0 13 3 10 5 -3 3 0 11 6 19 17
20 5 16 -14 -5z"/>
<path d="M2113 4365 c0 -8 4 -12 9 -9 5 3 6 10 3 15 -9 13 -12 11 -12 -6z"/>
<path d="M2136 4353 c-6 -14 -5 -15 5 -6 7 7 10 15 7 18 -3 3 -9 -2 -12 -12z"/>
<path d="M1939 4348 c-7 -24 -4 -34 12 -35 10 -1 21 2 24 7 2 4 -3 7 -13 6 -9
0 -16 5 -14 12 2 10 -6 19 -9 10z"/>
<path d="M2020 4346 c0 -2 8 -10 18 -17 15 -13 16 -12 3 4 -13 16 -21 21 -21
13z"/>
<path d="M1997 4333 c-10 -9 -9 -23 1 -23 5 0 9 7 9 15 0 17 -1 18 -10 8z"/>
<path d="M3796 4322 c-3 -5 1 -9 9 -9 8 0 12 4 9 9 -3 4 -7 8 -9 8 -2 0 -6 -4
-9 -8z"/>
<path d="M3834 4296 c1 -8 5 -18 8 -22 4 -3 5 1 4 10 -1 8 -5 18 -8 22 -4 3
-5 -1 -4 -10z"/>
<path d="M2035 4281 c-3 -5 -2 -12 3 -15 5 -3 9 1 9 9 0 17 -3 19 -12 6z"/>
<path d="M1950 4276 c0 -2 8 -10 18 -17 15 -13 16 -12 3 4 -13 16 -21 21 -21
13z"/>
<path d="M1826 4262 c-2 -4 4 -8 14 -8 10 0 16 4 14 8 -3 4 -9 8 -14 8 -5 0
-11 -4 -14 -8z"/>
<path d="M3900 4266 c0 -2 8 -10 18 -17 15 -13 16 -12 3 4 -13 16 -21 21 -21
13z"/>
<path d="M1889 4243 c-13 -16 -12 -17 4 -4 9 7 17 15 17 17 0 8 -8 3 -21 -13z"/>
<path d="M1789 4223 c-13 -16 -12 -17 4 -4 9 7 17 15 17 17 0 8 -8 3 -21 -13z"/>
<path d="M1913 4225 c0 -8 4 -12 9 -9 5 3 6 10 3 15 -9 13 -12 11 -12 -6z"/>
<path d="M1730 4216 c0 -2 8 -10 18 -17 15 -13 16 -12 3 4 -13 16 -21 21 -21
13z"/>
<path d="M1826 4178 c3 -5 10 -6 15 -3 13 9 11 12 -6 12 -8 0 -12 -4 -9 -9z"/>
<path d="M1790 4161 c0 -6 4 -13 10 -16 6 -3 7 1 4 9 -7 18 -14 21 -14 7z"/>
<path d="M2777 4164 c-1 -2 -42 -5 -89 -8 -94 -6 -186 -24 -288 -58 -215 -71
-390 -222 -456 -393 -10 -27 -19 -52 -20 -55 -1 -6 -15 -97 -19 -125 -11 -78
46 -220 119 -297 24 -25 41 -50 38 -54 -4 -4 -2 -4 4 -1 15 9 64 -15 64 -30 0
-7 5 -13 11 -13 5 0 8 4 5 9 -4 5 7 4 23 -2 17 -6 28 -14 25 -18 -2 -4 4 -7
13 -7 10 1 36 -2 58 -6 104 -20 120 -17 123 22 1 15 4 43 7 62 3 19 8 56 11
81 l5 46 -56 12 c-70 16 -134 63 -161 119 -21 44 -24 68 -11 89 4 6 1 14 -5
16 -10 4 -10 6 0 6 7 1 10 6 7 11 -8 13 14 80 26 80 5 0 9 7 9 15 0 9 7 18 15
21 8 3 17 14 20 25 4 11 11 17 16 14 5 -4 9 -1 9 5 0 7 7 9 16 6 8 -3 13 -2 9
3 -10 17 126 98 145 86 6 -3 10 -2 10 3 0 5 9 12 20 15 11 3 18 1 15 -3 -3 -5
0 -12 6 -16 7 -4 9 -3 6 2 -10 17 7 30 55 41 34 7 50 7 59 -1 9 -8 10 -8 6 0
-9 16 18 25 32 11 8 -8 11 -8 11 1 0 7 5 12 11 12 5 0 7 -6 3 -12 -6 -10 -4
-10 7 0 17 15 103 17 93 1 -4 -8 -1 -8 13 -1 11 6 33 10 49 8 23 -3 29 -8 28
-25 -1 -12 1 -19 5 -16 3 4 6 12 6 18 0 7 8 12 18 11 78 -4 79 -4 73 -20 -5
-13 -3 -14 6 -6 15 12 68 5 68 -9 0 -5 3 -8 8 -8 22 4 42 -2 37 -11 -3 -6 1
-7 10 -4 9 4 28 -2 43 -13 15 -11 37 -23 49 -27 12 -4 25 -16 28 -26 3 -11 12
-19 18 -17 7 1 12 -7 12 -18 0 -13 6 -19 18 -17 10 2 17 -3 17 -13 0 -8 4 -15
9 -15 22 0 55 -97 58 -170 6 -145 -55 -250 -180 -309 -67 -32 -172 -56 -210
-49 -28 5 -42 -8 -44 -42 -6 -76 -20 -166 -28 -179 -3 -6 7 -9 22 -7 16 1 36
-2 47 -7 14 -7 16 -6 11 4 -5 6 -4 10 1 7 5 -4 34 -9 64 -13 30 -4 57 -10 60
-13 3 -4 18 -8 34 -10 17 -2 39 -8 50 -15 12 -6 27 -12 35 -13 8 -2 17 -8 21
-14 4 -7 11 -12 16 -13 5 -1 8 -6 6 -10 -1 -5 2 -6 8 -2 13 8 71 -36 63 -48
-3 -6 -1 -7 4 -4 13 8 65 -49 89 -96 65 -125 44 -307 -48 -408 -71 -79 -165
-120 -288 -124 -113 -5 -286 30 -309 61 -8 11 -32 17 -29 7 4 -14 -26 -103
-34 -103 -4 0 -7 -3 -6 -7 1 -5 -4 -25 -11 -47 -10 -28 -16 -35 -22 -25 -6 9
-9 10 -9 2 0 -6 4 -14 10 -18 6 -3 5 -15 -2 -31 -7 -15 -8 -28 -2 -33 13 -11
114 -51 131 -51 8 0 11 -5 7 -12 -5 -10 -4 -10 5 -2 8 8 25 9 49 3 20 -4 60
-10 87 -13 28 -2 55 -5 60 -6 6 -2 12 -1 15 0 13 5 72 4 76 -1 2 -4 22 -3 44
1 26 5 37 4 33 -3 -4 -6 -1 -7 8 -1 8 4 23 9 34 10 83 6 102 9 114 18 12 9 13
8 6 -4 -7 -12 -6 -13 6 -3 8 6 28 13 44 16 37 6 96 27 111 38 6 5 14 6 17 2 4
-3 7 -1 7 6 0 9 8 11 21 8 12 -3 18 -3 15 0 -8 8 50 43 70 43 8 0 12 4 9 10
-3 5 -1 10 5 10 7 0 30 16 52 35 23 19 44 32 49 30 4 -3 11 0 15 6 5 8 3 9 -7
4 -12 -7 6 16 49 63 6 7 12 17 12 21 0 4 9 17 20 29 12 12 18 22 14 22 -3 0
-2 6 3 13 18 22 40 100 50 175 3 23 10 42 14 42 5 0 9 5 9 11 0 5 -4 8 -8 5
-5 -3 -9 10 -9 29 0 19 5 35 11 35 7 0 6 3 -1 8 -7 4 -14 23 -16 42 -11 106
-116 257 -232 332 -63 41 -196 108 -189 95 4 -7 -3 -3 -16 8 -13 11 -20 14
-16 7 7 -11 4 -12 -11 -4 -10 6 -38 13 -61 15 -49 5 -67 16 -29 18 15 1 33 2
40 3 6 1 18 -2 25 -7 9 -7 11 -6 7 4 -3 9 5 18 25 26 23 9 29 9 24 0 -3 -7 0
-5 8 4 12 14 32 25 51 27 4 1 19 13 33 27 28 28 34 30 54 13 12 -11 12 -10 1
4 -14 18 -6 42 10 32 5 -3 8 -2 7 3 -4 13 44 63 55 56 6 -3 7 -1 3 5 -12 20 4
34 22 20 14 -10 15 -10 5 2 -15 17 -17 34 -3 25 6 -3 7 1 4 9 -3 9 -1 16 6 16
6 0 8 5 5 10 -3 6 -1 10 5 10 6 0 9 4 6 8 -3 5 1 19 8 33 7 13 10 31 8 38 -3
10 0 12 13 7 13 -5 15 -3 8 6 -5 7 -9 45 -8 83 0 39 -2 84 -6 102 -4 19 -2 36
5 43 8 8 7 11 -3 8 -8 -2 -16 6 -18 17 -3 11 -6 25 -7 30 -2 6 -3 13 -2 16 0
4 -6 15 -14 25 -9 11 -22 32 -30 48 -8 16 -37 54 -65 84 -127 140 -269 206
-550 257 -16 3 -70 8 -120 11 -49 3 -111 6 -137 8 -27 1 -49 1 -51 0z"/>
<path d="M4054 4162 c4 -3 14 -7 22 -8 9 -1 13 0 10 4 -4 3 -14 7 -22 8 -9 1
-13 0 -10 -4z"/>
<path d="M1740 4145 c0 -2 6 -8 13 -14 10 -8 14 -7 14 2 0 8 -6 14 -14 14 -7
0 -13 -1 -13 -2z"/>
<path d="M1715 4130 c-4 -6 -10 -8 -14 -6 -4 3 -8 -1 -8 -9 0 -13 4 -12 19 2
18 16 22 23 14 23 -3 0 -8 -5 -11 -10z"/>
<path d="M4086 4118 c3 -5 10 -6 15 -3 13 9 11 12 -6 12 -8 0 -12 -4 -9 -9z"/>
<path d="M1552 4091 c7 -9 13 -18 15 -20 1 -2 1 5 0 16 0 11 -7 20 -14 20 -10
0 -10 -4 -1 -16z"/>
<path d="M1515 4069 c-4 -6 -5 -12 -2 -15 2 -3 7 2 10 11 7 17 1 20 -8 4z"/>
<path d="M4250 4063 c0 -6 8 -17 18 -24 16 -13 16 -13 2 6 -8 11 -16 22 -17
24 -2 2 -3 0 -3 -6z"/>
<path d="M1475 4040 c3 -5 8 -10 11 -10 2 0 4 5 4 10 0 6 -5 10 -11 10 -5 0
-7 -4 -4 -10z"/>
<path d="M1555 4041 c-3 -5 -2 -12 3 -15 5 -3 9 1 9 9 0 17 -3 19 -12 6z"/>
<path d="M1426 4022 c-2 -4 4 -8 14 -8 10 0 16 4 14 8 -3 4 -9 8 -14 8 -5 0
-11 -4 -14 -8z"/>
<path d="M1315 3980 c-3 -5 -1 -10 4 -10 6 0 11 5 11 10 0 6 -2 10 -4 10 -3 0
-8 -4 -11 -10z"/>
<path d="M1466 3978 c3 -4 9 -8 15 -8 5 0 9 4 9 8 0 5 -7 9 -15 9 -8 0 -12 -4
-9 -9z"/>
<path d="M1535 3980 c3 -5 8 -10 11 -10 2 0 4 5 4 10 0 6 -5 10 -11 10 -5 0
-7 -4 -4 -10z"/>
<path d="M4340 3980 c8 -5 20 -10 25 -10 6 0 3 5 -5 10 -8 5 -19 10 -25 10 -5
0 -3 -5 5 -10z"/>
<path d="M4387 3979 c7 -7 15 -10 18 -7 3 3 -2 9 -12 12 -14 6 -15 5 -6 -5z"/>
<path d="M1360 3960 c8 -5 20 -10 25 -10 6 0 3 5 -5 10 -8 5 -19 10 -25 10 -5
0 -3 -5 5 -10z"/>
<path d="M4430 3966 c0 -2 7 -7 16 -10 8 -3 12 -2 9 4 -6 10 -25 14 -25 6z"/>
<path d="M1276 3933 c-6 -14 -5 -15 5 -6 7 7 10 15 7 18 -3 3 -9 -2 -12 -12z"/>
<path d="M4415 3940 c3 -5 8 -10 11 -10 2 0 4 5 4 10 0 6 -5 10 -11 10 -5 0
-7 -4 -4 -10z"/>
<path d="M1226 3918 c3 -5 10 -6 15 -3 13 9 11 12 -6 12 -8 0 -12 -4 -9 -9z"/>
<path d="M1313 3910 c1 -21 10 -18 13 5 1 8 -2 15 -6 15 -5 0 -8 -9 -7 -20z"/>
<path d="M1390 3918 c0 -4 4 -8 9 -8 6 0 12 4 15 8 3 5 -1 9 -9 9 -8 0 -15 -4
-15 -9z"/>
<path d="M4510 3880 c0 -5 5 -10 11 -10 5 0 7 5 4 10 -3 6 -8 10 -11 10 -2 0
-4 -4 -4 -10z"/>
<path d="M1189 3863 c-13 -16 -12 -17 4 -4 9 7 17 15 17 17 0 8 -8 3 -21 -13z"/>
<path d="M2740 3866 c0 -2 8 -10 18 -17 15 -13 16 -12 3 4 -13 16 -21 21 -21
13z"/>
<path d="M4586 3862 c-3 -5 1 -9 9 -9 8 0 15 4 15 9 0 4 -4 8 -9 8 -6 0 -12
-4 -15 -8z"/>
<path d="M1256 3847 c3 -10 9 -15 12 -12 3 3 0 11 -7 18 -10 9 -11 8 -5 -6z"/>
<path d="M2653 3847 c0 -8 6 -14 14 -14 9 0 10 4 2 14 -6 7 -12 13 -14 13 -1
0 -2 -6 -2 -13z"/>
<path d="M1194 3838 c-4 -7 -4 -10 1 -6 4 4 15 2 24 -5 14 -11 14 -10 2 6 -16
20 -18 21 -27 5z"/>
<path d="M2550 3845 c0 -7 30 -13 34 -7 3 4 -4 9 -15 9 -10 1 -19 0 -19 -2z"/>
<path d="M2606 3838 c3 -5 10 -6 15 -3 13 9 11 12 -6 12 -8 0 -12 -4 -9 -9z"/>
<path d="M2696 3842 c-3 -4 4 -9 15 -9 23 -2 25 3 4 10 -8 4 -16 3 -19 -1z"/>
<path d="M2995 3831 c-3 -5 -2 -12 3 -15 5 -3 9 1 9 9 0 17 -3 19 -12 6z"/>
<path d="M1280 3820 c-9 -6 -10 -10 -3 -10 6 0 15 5 18 10 8 12 4 12 -15 0z"/>
<path d="M2790 3816 c7 -7 13 -7 20 0 6 6 3 10 -10 10 -13 0 -16 -4 -10 -10z"/>
<path d="M2919 3813 c-13 -16 -12 -17 4 -4 16 13 21 21 13 21 -2 0 -10 -8 -17
-17z"/>
<path d="M2543 3804 c9 -12 15 -28 12 -37 -4 -8 -3 -17 2 -20 19 -12 9 43 -11
60 -21 18 -21 18 -3 -3z"/>
<path d="M2615 3809 c-4 -6 -5 -12 -2 -15 2 -3 7 2 10 11 7 17 1 20 -8 4z"/>
<path d="M3054 3806 c1 -8 5 -18 8 -22 4 -3 5 1 4 10 -1 8 -5 18 -8 22 -4 3
-5 -1 -4 -10z"/>
<path d="M2413 3793 c0 -9 4 -10 14 -2 7 6 13 12 13 14 0 1 -6 2 -13 2 -8 0
-14 -6 -14 -14z"/>
<path d="M2835 3799 c-3 -4 2 -6 10 -5 21 3 28 13 10 13 -9 0 -18 -4 -20 -8z"/>
<path d="M3115 3801 c-3 -5 -2 -12 3 -15 5 -3 9 1 9 9 0 17 -3 19 -12 6z"/>
<path d="M2593 3775 c0 -8 4 -12 9 -9 5 3 6 10 3 15 -9 13 -12 11 -12 -6z"/>
<path d="M2690 3779 c0 -5 5 -7 10 -4 6 3 10 8 10 11 0 2 -4 4 -10 4 -5 0 -10
-5 -10 -11z"/>
<path d="M2339 3753 c-13 -16 -12 -17 4 -4 9 7 17 15 17 17 0 8 -8 3 -21 -13z"/>
<path d="M2430 3760 c0 -5 5 -10 11 -10 5 0 7 5 4 10 -3 6 -8 10 -11 10 -2 0
-4 -4 -4 -10z"/>
<path d="M3053 3755 c0 -8 4 -12 9 -9 5 3 6 10 3 15 -9 13 -12 11 -12 -6z"/>
<path d="M3161 3756 c-9 -11 -9 -16 1 -22 7 -4 10 -4 6 1 -4 4 -3 14 3 22 6 7
9 13 6 13 -2 0 -10 -6 -16 -14z"/>
<path d="M2807 3754 c-1 -1 -29 -5 -62 -7 -79 -7 -97 -12 -166 -43 -34 -16
-59 -34 -60 -43 0 -16 -3 -35 -13 -116 -3 -22 -8 -60 -11 -85 -3 -25 -7 -61
-10 -80 -3 -19 -8 -57 -11 -85 -3 -27 -7 -59 -9 -70 -1 -11 -3 -25 -4 -32 0
-6 -9 -14 -18 -16 -16 -4 -16 -5 0 -6 10 0 17 -7 14 -13 -2 -7 -10 -12 -16
-10 -8 1 -8 -4 1 -18 10 -15 10 -22 0 -32 -6 -6 -12 -17 -12 -22 0 -6 5 -4 10
4 5 8 10 10 10 4 0 -6 -3 -14 -7 -17 -3 -4 -7 -26 -8 -49 -2 -55 -15 -168 -21
-190 -3 -10 -37 -34 -77 -54 -126 -64 -258 -159 -317 -227 -14 -17 -33 -39
-44 -51 -26 -30 -72 -124 -86 -175 -16 -59 -15 -167 2 -221 16 -51 63 -130 77
-130 6 0 13 -9 16 -21 4 -11 9 -18 12 -15 3 3 17 -4 31 -14 13 -11 33 -20 43
-20 10 0 23 -8 28 -17 6 -11 11 -13 11 -5 0 10 5 10 20 2 10 -6 23 -10 27 -9
4 1 10 1 13 -1 15 -5 177 -4 174 2 -3 4 4 7 13 7 39 1 53 5 53 14 0 5 7 7 15
3 8 -3 15 -2 15 2 0 4 9 13 21 20 17 11 20 11 14 0 -3 -7 0 -5 8 5 8 10 24 19
35 20 11 0 20 4 19 8 -1 4 14 22 33 41 46 46 75 81 78 93 1 6 6 10 11 10 6 0
16 7 23 15 11 12 11 12 -4 1 -22 -17 -23 -3 -2 27 8 12 12 22 7 22 -4 0 -2 4
5 9 7 4 14 18 15 30 1 13 6 20 14 17 7 -3 13 -1 13 4 0 6 -4 10 -9 10 -4 0 -3
18 2 39 6 22 13 38 16 36 3 -1 7 17 8 42 2 27 10 54 20 66 10 11 12 17 6 13
-15 -9 -16 -7 -3 69 5 33 12 78 15 100 7 49 13 80 15 80 1 0 3 17 6 39 2 21 9
46 16 54 8 10 9 13 2 9 -8 -4 -11 2 -10 18 1 28 6 30 26 13 10 -9 10 -7 -1 7
-8 11 -14 26 -13 33 1 6 2 28 3 48 0 19 5 33 9 30 5 -3 8 11 7 29 -1 19 2 58
7 87 5 29 11 67 12 83 1 20 6 29 15 27 12 -3 12 0 2 12 -7 8 -10 23 -7 33 7
24 17 90 19 131 1 17 5 32 8 32 4 0 6 8 5 18 -2 39 15 137 27 151 10 12 9 13
-2 6 -11 -6 -13 -4 -8 9 4 10 7 29 7 42 0 14 3 23 8 21 4 -3 8 29 9 70 2 40
-1 72 -5 69 -4 -2 -36 -1 -70 3 -34 4 -63 6 -65 5z m-431 -1229 c1 -8 -1 -15
-5 -15 -4 0 -7 -16 -6 -35 1 -19 -1 -35 -4 -35 -3 0 -7 -15 -8 -32 -4 -104
-47 -208 -102 -245 -68 -46 -141 -9 -146 72 -3 49 13 115 27 115 5 0 6 -4 3
-10 -3 -5 -1 -10 5 -10 6 0 9 8 6 18 -4 12 6 33 30 60 34 40 72 62 43 25 -13
-16 -12 -17 4 -4 9 8 15 16 12 19 -8 8 16 32 26 26 5 -3 9 -1 9 4 0 4 14 19
31 31 18 13 28 17 24 10 -4 -8 2 -4 15 9 22 24 32 23 36 -3z"/>
<path d="M2315 2480 c-3 -5 -1 -10 4 -10 6 0 11 5 11 10 0 6 -2 10 -4 10 -3 0
-8 -4 -11 -10z"/>
<path d="M2260 2425 c0 -2 6 -8 13 -14 10 -8 14 -7 14 2 0 8 -6 14 -14 14 -7
0 -13 -1 -13 -2z"/>
<path d="M2235 2411 c-3 -5 -2 -12 3 -15 5 -3 9 1 9 9 0 17 -3 19 -12 6z"/>
<path d="M2190 2403 c0 -6 8 -17 18 -24 16 -13 16 -13 2 6 -8 11 -16 22 -17
24 -2 2 -3 0 -3 -6z"/>
<path d="M2310 2379 c0 -5 5 -7 10 -4 6 3 10 8 10 11 0 2 -4 4 -10 4 -5 0 -10
-5 -10 -11z"/>
<path d="M2180 2345 c0 -2 6 -8 13 -14 10 -8 14 -7 14 2 0 8 -6 14 -14 14 -7
0 -13 -1 -13 -2z"/>
<path d="M2155 2309 c-4 -6 -5 -12 -2 -15 2 -3 7 2 10 11 7 17 1 20 -8 4z"/>
<path d="M2250 2301 c0 -6 4 -13 10 -16 6 -3 7 1 4 9 -7 18 -14 21 -14 7z"/>
<path d="M2190 2259 c0 -5 5 -7 10 -4 6 3 10 8 10 11 0 2 -4 4 -10 4 -5 0 -10
-5 -10 -11z"/>
<path d="M2176 2207 c3 -10 9 -15 12 -12 3 3 0 11 -7 18 -10 9 -11 8 -5 -6z"/>
<path d="M2120 2205 c0 -2 6 -8 13 -14 10 -8 14 -7 14 2 0 8 -6 14 -14 14 -7
0 -13 -1 -13 -2z"/>
<path d="M2455 3729 c-4 -6 -5 -12 -2 -15 2 -3 7 2 10 11 7 17 1 20 -8 4z"/>
<path d="M2325 3719 c-3 -4 2 -6 10 -5 21 3 28 13 10 13 -9 0 -18 -4 -20 -8z"/>
<path d="M2374 3680 c0 -13 4 -16 10 -10 7 7 7 13 0 20 -6 6 -10 3 -10 -10z"/>
<path d="M1115 3681 c-3 -5 -2 -12 3 -15 5 -3 9 1 9 9 0 17 -3 19 -12 6z"/>
<path d="M1145 3680 c-3 -6 1 -7 9 -4 18 7 21 14 7 14 -6 0 -13 -4 -16 -10z"/>
<path d="M2320 3686 c0 -2 8 -10 18 -17 15 -13 16 -12 3 4 -13 16 -21 21 -21
13z"/>
<path d="M2235 3661 c-3 -5 -2 -12 3 -15 5 -3 9 1 9 9 0 17 -3 19 -12 6z"/>
<path d="M2300 3640 c-9 -6 -10 -10 -3 -10 6 0 15 5 18 10 8 12 4 12 -15 0z"/>
<path d="M1113 3614 c0 -9 4 -11 12 -4 7 5 14 9 16 7 2 -1 3 0 1 2 -7 11 -29
7 -29 -5z"/>
<path d="M2206 3605 c-18 -14 -18 -14 1 -12 11 0 20 7 20 14 0 7 -1 13 -1 13
-1 0 -9 -7 -20 -15z"/>
<path d="M2315 3609 c-4 -6 -5 -12 -2 -15 2 -3 7 2 10 11 7 17 1 20 -8 4z"/>
<path d="M2253 3593 c0 -9 4 -10 12 -3 7 5 15 7 18 3 4 -3 7 -1 7 5 0 6 -8 10
-18 9 -10 0 -19 -7 -19 -14z"/>
<path d="M3780 3606 c0 -2 8 -10 18 -17 15 -13 16 -12 3 4 -13 16 -21 21 -21
13z"/>
<path d="M2256 3553 c-6 -14 -5 -15 5 -6 7 7 10 15 7 18 -3 3 -9 -2 -12 -12z"/>
<path d="M1107 3539 c7 -7 15 -10 18 -7 3 3 -2 9 -12 12 -14 6 -15 5 -6 -5z"/>
<path d="M3000 3515 c-7 -9 -11 -17 -9 -20 3 -2 10 5 17 15 14 24 10 26 -8 5z"/>
<path d="M3790 3521 c0 -6 4 -13 10 -16 6 -3 7 1 4 9 -7 18 -14 21 -14 7z"/>
<path d="M2935 3491 c-3 -5 -2 -12 3 -15 5 -3 9 1 9 9 0 17 -3 19 -12 6z"/>
<path d="M3795 3461 c-3 -5 -2 -12 3 -15 5 -3 9 1 9 9 0 17 -3 19 -12 6z"/>
<path d="M3816 3433 c-6 -14 -5 -15 5 -6 7 7 10 15 7 18 -3 3 -9 -2 -12 -12z"/>
<path d="M2953 3425 c0 -8 4 -12 9 -9 5 3 6 10 3 15 -9 13 -12 11 -12 -6z"/>
<path d="M1100 3406 c0 -2 8 -10 18 -17 15 -13 16 -12 3 4 -13 16 -21 21 -21
13z"/>
<path d="M1115 3360 c3 -5 8 -10 11 -10 2 0 4 5 4 10 0 6 -5 10 -11 10 -5 0
-7 -4 -4 -10z"/>
<path d="M3795 3360 c3 -5 8 -10 11 -10 2 0 4 5 4 10 0 6 -5 10 -11 10 -5 0
-7 -4 -4 -10z"/>
<path d="M3826 3362 c-3 -5 1 -9 9 -9 8 0 12 4 9 9 -3 4 -7 8 -9 8 -2 0 -6 -4
-9 -8z"/>
<path d="M3778 3328 c12 -16 35 -18 48 -6 3 4 -2 5 -13 4 -10 -2 -25 2 -33 8
-13 9 -13 9 -2 -6z"/>
<path d="M2923 3298 c-9 -15 -14 -73 -6 -64 3 3 7 16 7 28 1 13 5 29 9 36 5 6
6 12 3 12 -3 0 -8 -6 -13 -12z"/>
<path d="M3746 3178 c3 -4 9 -8 15 -8 5 0 9 4 9 8 0 5 -7 9 -15 9 -8 0 -12 -4
-9 -9z"/>
<path d="M3694 3162 c4 -3 14 -7 22 -8 9 -1 13 0 10 4 -4 3 -14 7 -22 8 -9 1
-13 0 -10 -4z"/>
<path d="M1126 3142 c-3 -5 1 -9 9 -9 8 0 12 4 9 9 -3 4 -7 8 -9 8 -2 0 -6 -4
-9 -8z"/>
<path d="M3702 3124 c10 -10 20 -16 22 -13 3 3 -5 11 -17 18 -21 13 -21 12 -5
-5z"/>
<path d="M3586 3118 c3 -5 10 -6 15 -3 13 9 11 12 -6 12 -8 0 -12 -4 -9 -9z"/>
<path d="M3640 3126 c0 -2 8 -10 18 -17 15 -13 16 -12 3 4 -13 16 -21 21 -21
13z"/>
<path d="M2149 3103 c-13 -16 -12 -17 4 -4 9 7 17 15 17 17 0 8 -8 3 -21 -13z"/>
<path d="M2880 3086 c0 -2 8 -10 18 -17 15 -13 16 -12 3 4 -13 16 -21 21 -21
13z"/>
<path d="M3499 3073 c-13 -17 -13 -17 6 -3 11 8 22 16 24 17 2 2 0 3 -6 3 -6
0 -17 -8 -24 -17z"/>
<path d="M3554 3082 c4 -3 14 -7 22 -8 9 -1 13 0 10 4 -4 3 -14 7 -22 8 -9 1
-13 0 -10 -4z"/>
<path d="M3620 3080 c-9 -6 -10 -10 -3 -10 6 0 15 5 18 10 8 12 4 12 -15 0z"/>
<path d="M2190 3059 c0 -5 5 -7 10 -4 6 3 10 8 10 11 0 2 -4 4 -10 4 -5 0 -10
-5 -10 -11z"/>
<path d="M3540 3066 c0 -2 8 -10 18 -17 15 -13 16 -12 3 4 -13 16 -21 21 -21
13z"/>
<path d="M3650 3059 c0 -5 5 -7 10 -4 6 3 10 8 10 11 0 2 -4 4 -10 4 -5 0 -10
-5 -10 -11z"/>
<path d="M2264 3042 c4 -3 14 -7 22 -8 9 -1 13 0 10 4 -4 3 -14 7 -22 8 -9 1
-13 0 -10 -4z"/>
<path d="M2366 3042 c-3 -5 1 -9 9 -9 8 0 12 4 9 9 -3 4 -7 8 -9 8 -2 0 -6 -4
-9 -8z"/>
<path d="M3507 3039 c7 -7 15 -10 18 -7 3 3 -2 9 -12 12 -14 6 -15 5 -6 -5z"/>
<path d="M2870 3022 c0 -5 7 -9 15 -9 8 0 12 4 9 9 -3 4 -9 8 -15 8 -5 0 -9
-4 -9 -8z"/>
<path d="M1107 2999 c7 -7 15 -10 18 -7 3 3 -2 9 -12 12 -14 6 -15 5 -6 -5z"/>
<path d="M1100 2926 c0 -2 8 -10 18 -17 15 -13 16 -12 3 4 -13 16 -21 21 -21
13z"/>
<path d="M2875 2890 c10 -11 20 -20 23 -20 3 0 -3 9 -13 20 -10 11 -20 20 -23
20 -3 0 3 -9 13 -20z"/>
<path d="M1115 2880 c3 -5 8 -10 11 -10 2 0 4 5 4 10 0 6 -5 10 -11 10 -5 0
-7 -4 -4 -10z"/>
<path d="M3050 2881 c0 -6 4 -13 10 -16 6 -3 7 1 4 9 -7 18 -14 21 -14 7z"/>
<path d="M3111 2846 c-15 -16 -19 -26 -12 -31 7 -4 10 -1 9 7 -2 7 4 12 12 10
8 -2 12 0 8 4 -4 4 -3 13 3 21 19 22 4 14 -20 -11z"/>
<path d="M2893 2829 c-2 -23 3 -25 10 -4 4 8 3 16 -1 19 -4 3 -9 -4 -9 -15z"/>
<path d="M3066 2838 c3 -5 10 -6 15 -3 13 9 11 12 -6 12 -8 0 -12 -4 -9 -9z"/>
<path d="M1130 2819 c0 -5 5 -7 10 -4 6 3 10 8 10 11 0 2 -4 4 -10 4 -5 0 -10
-5 -10 -11z"/>
<path d="M3210 2816 c0 -2 8 -10 18 -17 15 -13 16 -12 3 4 -13 16 -21 21 -21
13z"/>
<path d="M3187 2799 c7 -7 15 -10 18 -7 3 3 -2 9 -12 12 -14 6 -15 5 -6 -5z"/>
<path d="M2895 2771 c-3 -5 -2 -12 3 -15 5 -3 9 1 9 9 0 17 -3 19 -12 6z"/>
<path d="M2835 2761 c-3 -5 -2 -12 3 -15 5 -3 9 1 9 9 0 17 -3 19 -12 6z"/>
<path d="M2866 2742 c-3 -5 1 -9 9 -9 8 0 12 4 9 9 -3 4 -7 8 -9 8 -2 0 -6 -4
-9 -8z"/>
<path d="M1110 2717 c0 -2 6 -10 14 -16 11 -9 16 -9 22 1 4 7 4 10 -1 6 -4 -4
-14 -3 -22 3 -7 6 -13 9 -13 6z"/>
<path d="M2840 2700 c-9 -6 -10 -10 -3 -10 6 0 15 5 18 10 8 12 4 12 -15 0z"/>
<path d="M1113 2654 c0 -9 4 -11 12 -4 7 5 14 9 16 7 2 -1 3 0 1 2 -7 11 -29
7 -29 -5z"/>
<path d="M2817 2653 c-10 -9 -9 -23 1 -23 5 0 9 7 9 15 0 17 -1 18 -10 8z"/>
<path d="M1107 2579 c7 -7 15 -10 18 -7 3 3 -2 9 -12 12 -14 6 -15 5 -6 -5z"/>
<path d="M2799 2588 c-7 -23 -4 -35 7 -35 9 0 11 4 4 12 -5 7 -7 15 -3 18 3 4
3 7 0 7 -4 0 -7 -1 -8 -2z"/>
<path d="M2817 2533 c-10 -9 -9 -23 1 -23 5 0 9 7 9 15 0 17 -1 18 -10 8z"/>
<path d="M2786 2481 c8 -8 63 -10 68 -3 2 4 -13 7 -35 7 -21 1 -36 -1 -33 -4z"/>
<path d="M3956 2482 c-3 -5 1 -9 9 -9 8 0 12 4 9 9 -3 4 -7 8 -9 8 -2 0 -6 -4
-9 -8z"/>
<path d="M1100 2446 c0 -2 8 -10 18 -17 15 -13 16 -12 3 4 -13 16 -21 21 -21
13z"/>
<path d="M3975 2429 c-4 -6 -5 -12 -2 -15 2 -3 7 2 10 11 7 17 1 20 -8 4z"/>
<path d="M1115 2400 c3 -5 8 -10 11 -10 2 0 4 5 4 10 0 6 -5 10 -11 10 -5 0
-7 -4 -4 -10z"/>
<path d="M2794 2402 c4 -3 14 -7 22 -8 9 -1 13 0 10 4 -4 3 -14 7 -22 8 -9 1
-13 0 -10 -4z"/>
<path d="M3934 2402 c4 -3 14 -7 22 -8 9 -1 13 0 10 4 -4 3 -14 7 -22 8 -9 1
-13 0 -10 -4z"/>
<path d="M2773 2365 c0 -8 4 -12 9 -9 5 3 6 10 3 15 -9 13 -12 11 -12 -6z"/>
<path d="M2806 2362 c-3 -5 1 -9 9 -9 8 0 15 4 15 9 0 4 -4 8 -9 8 -6 0 -12
-4 -15 -8z"/>
<path d="M3946 2342 c-3 -5 1 -9 9 -9 8 0 15 4 15 9 0 4 -4 8 -9 8 -6 0 -12
-4 -15 -8z"/>
<path d="M2770 2336 c0 -2 8 -10 18 -17 15 -13 16 -12 3 4 -13 16 -21 21 -21
13z"/>
<path d="M2765 2279 c-3 -4 2 -6 10 -5 21 3 28 13 10 13 -9 0 -18 -4 -20 -8z"/>
<path d="M2735 2260 c-3 -5 -1 -10 4 -10 6 0 11 5 11 10 0 6 -2 10 -4 10 -3 0
-8 -4 -11 -10z"/>
<path d="M3904 2239 c-4 -8 54 -4 62 4 3 2 -9 4 -26 3 -18 0 -34 -4 -36 -7z"/>
<path d="M3899 2208 c15 -21 31 -23 31 -6 0 6 -3 8 -7 5 -3 -4 -13 -1 -22 6
-14 11 -14 10 -2 -5z"/>
<path d="M3869 2183 c-13 -16 -12 -17 4 -4 16 13 21 21 13 21 -2 0 -10 -8 -17
-17z"/>
<path d="M1126 2182 c-3 -5 1 -9 9 -9 8 0 12 4 9 9 -3 4 -7 8 -9 8 -2 0 -6 -4
-9 -8z"/>
<path d="M2719 2188 c-5 -18 -6 -38 -1 -34 7 8 12 36 6 36 -2 0 -4 -1 -5 -2z"/>
<path d="M3825 2140 c-3 -6 1 -7 9 -4 18 7 21 14 7 14 -6 0 -13 -4 -16 -10z"/>
<path d="M3860 2145 c0 -2 6 -8 13 -14 10 -8 14 -7 14 2 0 8 -6 14 -14 14 -7
0 -13 -1 -13 -2z"/>
<path d="M3905 2120 c-3 -6 1 -7 9 -4 18 7 21 14 7 14 -6 0 -13 -4 -16 -10z"/>
<path d="M3793 2103 c4 -3 1 -13 -6 -22 -11 -14 -10 -14 5 -2 16 12 16 31 1
31 -4 0 -3 -3 0 -7z"/>
<path d="M3779 2058 c-5 -18 -6 -38 -1 -34 7 8 12 36 6 36 -2 0 -4 -1 -5 -2z"/>
<path d="M1107 2039 c7 -7 15 -10 18 -7 3 3 -2 9 -12 12 -14 6 -15 5 -6 -5z"/>
<path d="M2640 2040 c-8 -5 -10 -10 -5 -10 6 0 17 5 25 10 8 5 11 10 5 10 -5
0 -17 -5 -25 -10z"/>
<path d="M3846 2022 c-3 -5 1 -9 9 -9 8 0 12 4 9 9 -3 4 -7 8 -9 8 -2 0 -6 -4
-9 -8z"/>
<path d="M3710 2005 c0 -7 30 -13 34 -7 3 4 -4 9 -15 9 -10 1 -19 0 -19 -2z"/>
<path d="M3790 2005 c0 -7 30 -13 34 -7 3 4 -4 9 -15 9 -10 1 -19 0 -19 -2z"/>
<path d="M2586 1978 c3 -4 9 -8 15 -8 5 0 9 4 9 8 0 5 -7 9 -15 9 -8 0 -12 -4
-9 -9z"/>
<path d="M1100 1966 c0 -2 8 -10 18 -17 15 -13 16 -12 3 4 -13 16 -21 21 -21
13z"/>
<path d="M3710 1961 c0 -6 4 -13 10 -16 6 -3 7 1 4 9 -7 18 -14 21 -14 7z"/>
<path d="M3590 1936 c7 -7 13 -7 20 0 6 6 3 10 -10 10 -13 0 -16 -4 -10 -10z"/>
<path d="M3670 1940 c0 -5 5 -10 10 -10 6 0 10 5 10 10 0 6 -4 10 -10 10 -5 0
-10 -4 -10 -10z"/>
<path d="M3750 1941 c0 -6 4 -13 10 -16 6 -3 7 1 4 9 -7 18 -14 21 -14 7z"/>
<path d="M1115 1920 c3 -5 8 -10 11 -10 2 0 4 5 4 10 0 6 -5 10 -11 10 -5 0
-7 -4 -4 -10z"/>
<path d="M3555 1920 c3 -5 8 -10 11 -10 2 0 4 5 4 10 0 6 -5 10 -11 10 -5 0
-7 -4 -4 -10z"/>
<path d="M3630 1919 c0 -5 5 -7 10 -4 6 3 10 8 10 11 0 2 -4 4 -10 4 -5 0 -10
-5 -10 -11z"/>
<path d="M3710 1926 c0 -2 7 -7 16 -10 8 -3 12 -2 9 4 -6 10 -25 14 -25 6z"/>
<path d="M3513 1907 c0 -8 6 -14 14 -14 9 0 10 4 2 14 -6 7 -12 13 -14 13 -1
0 -2 -6 -2 -13z"/>
<path d="M3476 1902 c-3 -5 1 -9 9 -9 8 0 12 4 9 9 -3 4 -7 8 -9 8 -2 0 -6 -4
-9 -8z"/>
<path d="M3586 1902 c-2 -4 4 -8 14 -8 10 0 16 4 14 8 -3 4 -9 8 -14 8 -5 0
-11 -4 -14 -8z"/>
<path d="M3690 1899 c0 -5 5 -7 10 -4 6 3 10 8 10 11 0 2 -4 4 -10 4 -5 0 -10
-5 -10 -11z"/>
<path d="M2456 1887 c3 -10 9 -15 12 -12 3 3 0 11 -7 18 -10 9 -11 8 -5 -6z"/>
<path d="M2565 1879 c-3 -4 2 -6 10 -5 21 3 28 13 10 13 -9 0 -18 -4 -20 -8z"/>
<path d="M2833 1853 c0 -9 4 -10 14 -2 7 6 13 12 13 14 0 1 -6 2 -13 2 -8 0
-14 -6 -14 -14z"/>
<path d="M3479 1853 c-13 -16 -12 -17 4 -4 16 13 21 21 13 21 -2 0 -10 -8 -17
-17z"/>
<path d="M2097 1853 c-10 -9 -9 -23 1 -23 5 0 9 7 9 15 0 17 -1 18 -10 8z"/>
<path d="M2449 1843 c-13 -16 -12 -17 4 -4 9 7 17 15 17 17 0 8 -8 3 -21 -13z"/>
<path d="M2493 1833 c0 -9 4 -10 14 -2 7 6 13 12 13 14 0 1 -6 2 -13 2 -8 0
-14 -6 -14 -14z"/>
<path d="M2575 1840 c3 -5 8 -10 11 -10 2 0 4 5 4 10 0 6 -5 10 -11 10 -5 0
-7 -4 -4 -10z"/>
<path d="M3150 1841 c0 -6 4 -13 10 -16 6 -3 7 1 4 9 -7 18 -14 21 -14 7z"/>
<path d="M3280 1846 c0 -2 8 -10 18 -17 15 -13 16 -12 3 4 -13 16 -21 21 -21
13z"/>
<path d="M3573 1835 c0 -8 4 -12 9 -9 4 3 8 9 8 15 0 5 -4 9 -8 9 -5 0 -9 -7
-9 -15z"/>
<path d="M2349 1823 c-13 -16 -12 -17 4 -4 9 7 17 15 17 17 0 8 -8 3 -21 -13z"/>
<path d="M3116 1827 c3 -10 9 -15 12 -12 3 3 0 11 -7 18 -10 9 -11 8 -5 -6z"/>
<path d="M2145 1820 c-3 -6 1 -7 9 -4 18 7 21 14 7 14 -6 0 -13 -4 -16 -10z"/>
<path d="M3020 1826 c0 -2 8 -10 18 -17 15 -13 16 -12 3 4 -13 16 -21 21 -21
13z"/>
<path d="M3190 1821 c0 -6 4 -13 10 -16 6 -3 7 1 4 9 -7 18 -14 21 -14 7z"/>
<path d="M2253 1807 c0 -8 6 -14 14 -14 9 0 10 4 2 14 -6 7 -12 13 -14 13 -1
0 -2 -6 -2 -13z"/>
<path d="M2419 1818 c-5 -9 -5 -48 -1 -43 6 6 11 45 5 45 -2 0 -4 -1 -4 -2z"/>
<path d="M2856 1807 c3 -10 9 -15 12 -12 3 3 0 11 -7 18 -10 9 -11 8 -5 -6z"/>
<path d="M2936 1807 c3 -10 9 -15 12 -12 3 3 0 11 -7 18 -10 9 -11 8 -5 -6z"/>
<path d="M3150 1801 c0 -6 4 -12 8 -15 5 -3 9 1 9 9 0 8 -4 15 -9 15 -4 0 -8
-4 -8 -9z"/>
<path d="M3235 1802 c3 -3 0 -10 -5 -17 -7 -8 -5 -12 5 -12 8 0 13 3 10 5 -3
3 0 10 5 17 7 8 5 12 -5 12 -8 0 -13 -3 -10 -5z"/>
<path d="M3274 1786 c3 -16 8 -31 11 -35 3 -3 4 7 1 23 -3 16 -8 31 -11 35 -3
3 -4 -7 -1 -23z"/>
<path d="M3016 1778 c3 -4 11 -5 19 -1 21 7 19 12 -4 10 -11 0 -18 -5 -15 -9z"/>
<path d="M3113 1775 c0 -8 4 -12 9 -9 5 3 6 10 3 15 -9 13 -12 11 -12 -6z"/>
<path d="M3185 1780 c-3 -6 1 -7 9 -4 18 7 21 14 7 14 -6 0 -13 -4 -16 -10z"/>
<path d="M3405 1780 c-3 -6 1 -7 9 -4 18 7 21 14 7 14 -6 0 -13 -4 -16 -10z"/>
<path d="M2330 1766 c0 -2 7 -7 16 -10 8 -3 12 -2 9 4 -6 10 -25 14 -25 6z"/>
<path d="M5136 3981 c-3 -5 2 -15 12 -22 15 -12 16 -12 5 2 -7 9 -10 19 -6 22
3 4 4 7 0 7 -3 0 -8 -4 -11 -9z"/>
<path d="M5113 3905 c0 -8 4 -12 9 -9 5 3 6 10 3 15 -9 13 -12 11 -12 -6z"/>
<path d="M5136 3847 c3 -10 9 -15 12 -12 3 3 0 11 -7 18 -10 9 -11 8 -5 -6z"/>
<path d="M5113 3745 c0 -8 4 -12 9 -9 5 3 6 10 3 15 -9 13 -12 11 -12 -6z"/>
<path d="M5136 3687 c3 -10 9 -15 12 -12 3 3 0 11 -7 18 -10 9 -11 8 -5 -6z"/>
<path d="M5113 3585 c0 -8 4 -12 9 -9 5 3 6 10 3 15 -9 13 -12 11 -12 -6z"/>
<path d="M5136 3527 c3 -10 9 -15 12 -12 3 3 0 11 -7 18 -10 9 -11 8 -5 -6z"/>
<path d="M5113 3425 c0 -8 4 -12 9 -9 5 3 6 10 3 15 -9 13 -12 11 -12 -6z"/>
<path d="M5136 3367 c3 -10 9 -15 12 -12 3 3 0 11 -7 18 -10 9 -11 8 -5 -6z"/>
<path d="M5113 3265 c0 -8 4 -12 9 -9 5 3 6 10 3 15 -9 13 -12 11 -12 -6z"/>
<path d="M5136 3207 c3 -10 9 -15 12 -12 3 3 0 11 -7 18 -10 9 -11 8 -5 -6z"/>
<path d="M5113 3105 c0 -8 4 -12 9 -9 5 3 6 10 3 15 -9 13 -12 11 -12 -6z"/>
<path d="M5136 3047 c3 -10 9 -15 12 -12 3 3 0 11 -7 18 -10 9 -11 8 -5 -6z"/>
<path d="M5113 2945 c0 -8 4 -12 9 -9 5 3 6 10 3 15 -9 13 -12 11 -12 -6z"/>
<path d="M5136 2887 c3 -10 9 -15 12 -12 3 3 0 11 -7 18 -10 9 -11 8 -5 -6z"/>
<path d="M5113 2785 c0 -8 4 -12 9 -9 5 3 6 10 3 15 -9 13 -12 11 -12 -6z"/>
<path d="M5136 2727 c3 -10 9 -15 12 -12 3 3 0 11 -7 18 -10 9 -11 8 -5 -6z"/>
<path d="M5113 2625 c0 -8 4 -12 9 -9 5 3 6 10 3 15 -9 13 -12 11 -12 -6z"/>
<path d="M5136 2567 c3 -10 9 -15 12 -12 3 3 0 11 -7 18 -10 9 -11 8 -5 -6z"/>
<path d="M5113 2465 c0 -8 4 -12 9 -9 5 3 6 10 3 15 -9 13 -12 11 -12 -6z"/>
<path d="M5136 2407 c3 -10 9 -15 12 -12 3 3 0 11 -7 18 -10 9 -11 8 -5 -6z"/>
<path d="M5113 2305 c0 -8 4 -12 9 -9 5 3 6 10 3 15 -9 13 -12 11 -12 -6z"/>
<path d="M5136 2247 c3 -10 9 -15 12 -12 3 3 0 11 -7 18 -10 9 -11 8 -5 -6z"/>
<path d="M5113 2145 c0 -8 4 -12 9 -9 5 3 6 10 3 15 -9 13 -12 11 -12 -6z"/>
<path d="M5136 2087 c3 -10 9 -15 12 -12 3 3 0 11 -7 18 -10 9 -11 8 -5 -6z"/>
<path d="M5113 1985 c0 -8 4 -12 9 -9 5 3 6 10 3 15 -9 13 -12 11 -12 -6z"/>
<path d="M5136 1927 c3 -10 9 -15 12 -12 3 3 0 11 -7 18 -10 9 -11 8 -5 -6z"/>
<path d="M5113 1825 c0 -8 4 -12 9 -9 5 3 6 10 3 15 -9 13 -12 11 -12 -6z"/>
<path d="M5136 1767 c3 -10 9 -15 12 -12 3 3 0 11 -7 18 -10 9 -11 8 -5 -6z"/>
<path d="M5113 1665 c0 -8 4 -12 9 -9 5 3 6 10 3 15 -9 13 -12 11 -12 -6z"/>
<path d="M5136 1607 c3 -10 9 -15 12 -12 3 3 0 11 -7 18 -10 9 -11 8 -5 -6z"/>
<path d="M5080 1540 c-9 -6 -10 -10 -3 -10 6 0 15 5 18 10 8 12 4 12 -15 0z"/>
<path d="M4990 1479 c0 -5 5 -7 10 -4 6 3 10 8 10 11 0 2 -4 4 -10 4 -5 0 -10
-5 -10 -11z"/>
<path d="M4910 1443 c0 -6 8 -17 18 -24 16 -13 16 -13 2 6 -8 11 -16 22 -17
24 -2 2 -3 0 -3 -6z"/>
<path d="M5035 1440 c3 -5 8 -10 11 -10 2 0 4 5 4 10 0 6 -5 10 -11 10 -5 0
-7 -4 -4 -10z"/>
<path d="M775 1420 c-3 -5 -1 -10 4 -10 6 0 11 5 11 10 0 6 -2 10 -4 10 -3 0
-8 -4 -11 -10z"/>
<path d="M827 1419 c7 -7 15 -10 18 -7 3 3 -2 9 -12 12 -14 6 -15 5 -6 -5z"/>
<path d="M4965 1400 c10 -11 20 -20 23 -20 3 0 -3 9 -13 20 -10 11 -20 20 -23
20 -3 0 3 -9 13 -20z"/>
<path d="M4919 1373 c-13 -16 -12 -17 4 -4 16 13 21 21 13 21 -2 0 -10 -8 -17
-17z"/>
<path d="M946 1358 c3 -5 10 -6 15 -3 13 9 11 12 -6 12 -8 0 -12 -4 -9 -9z"/>
<path d="M4913 1335 c0 -8 4 -12 9 -9 5 3 6 10 3 15 -9 13 -12 11 -12 -6z"/>
<path d="M4856 1327 c3 -10 9 -15 12 -12 3 3 0 11 -7 18 -10 9 -11 8 -5 -6z"/>
<path d="M970 1320 c0 -5 5 -10 11 -10 5 0 7 5 4 10 -3 6 -8 10 -11 10 -2 0
-4 -4 -4 -10z"/>
<path d="M1000 1326 c0 -2 8 -10 18 -17 15 -13 16 -12 3 4 -13 16 -21 21 -21
13z"/>
<path d="M4685 1320 c-3 -6 1 -7 9 -4 18 7 21 14 7 14 -6 0 -13 -4 -16 -10z"/>
<path d="M4834 1316 c1 -8 5 -18 8 -22 4 -3 5 1 4 10 -1 8 -5 18 -8 22 -4 3
-5 -1 -4 -10z"/>
<path d="M4709 1303 c-13 -16 -12 -17 4 -4 16 13 21 21 13 21 -2 0 -10 -8 -17
-17z"/>
<path d="M4790 1306 c0 -2 7 -7 16 -10 8 -3 12 -2 9 4 -6 10 -25 14 -25 6z"/>
<path d="M1066 1282 c-3 -5 1 -9 9 -9 8 0 12 4 9 9 -3 4 -7 8 -9 8 -2 0 -6 -4
-9 -8z"/>
<path d="M4779 1273 c-13 -16 -12 -17 4 -4 16 13 21 21 13 21 -2 0 -10 -8 -17
-17z"/>
<path d="M4635 1245 c0 -18 3 -36 6 -39 3 -3 5 10 4 29 0 18 -3 36 -6 39 -3 3
-5 -10 -4 -29z"/>
<path d="M4679 1253 c-13 -16 -12 -17 4 -4 16 13 21 21 13 21 -2 0 -10 -8 -17
-17z"/>
<path d="M1133 1225 c0 -8 4 -12 9 -9 5 3 6 10 3 15 -9 13 -12 11 -12 -6z"/>
<path d="M4589 1223 c-13 -16 -12 -17 4 -4 9 7 17 15 17 17 0 8 -8 3 -21 -13z"/>
<path d="M1176 1207 c3 -10 9 -15 12 -12 3 3 0 11 -7 18 -10 9 -11 8 -5 -6z"/>
<path d="M4533 1205 c0 -8 4 -15 9 -15 4 0 8 4 8 9 0 6 -4 12 -8 15 -5 3 -9
-1 -9 -9z"/>
<path d="M1215 1180 c-2 -3 5 -6 15 -7 11 -1 22 2 24 5 3 4 -4 8 -15 8 -11 0
-22 -3 -24 -6z"/>
<path d="M4460 1186 c0 -2 8 -10 18 -17 15 -13 16 -12 3 4 -13 16 -21 21 -21
13z"/>
<path d="M4597 1168 c19 -21 31 -25 14 -5 -6 8 -9 16 -6 19 3 2 -2 5 -10 5
-13 0 -13 -3 2 -19z"/>
<path d="M4413 1155 c0 -8 4 -12 9 -9 5 3 6 10 3 15 -9 13 -12 11 -12 -6z"/>
<path d="M1313 1147 c0 -8 6 -14 14 -14 9 0 10 4 2 14 -6 7 -12 13 -14 13 -1
0 -2 -6 -2 -13z"/>
<path d="M4519 1148 c-4 -12 -5 -57 0 -53 6 6 10 55 4 55 -1 0 -3 -1 -4 -2z"/>
<path d="M4360 1126 c0 -2 8 -10 18 -17 15 -13 16 -12 3 4 -13 16 -21 21 -21
13z"/>
<path d="M4435 1120 c-3 -5 -1 -10 4 -10 6 0 11 5 11 10 0 6 -2 10 -4 10 -3 0
-8 -4 -11 -10z"/>
<path d="M1336 1102 c-3 -5 1 -9 9 -9 8 0 12 4 9 9 -3 4 -7 8 -9 8 -2 0 -6 -4
-9 -8z"/>
<path d="M4295 1081 c-3 -5 -2 -12 3 -15 5 -3 9 1 9 9 0 17 -3 19 -12 6z"/>
<path d="M4350 1081 c0 -6 4 -13 10 -16 6 -3 7 1 4 9 -7 18 -14 21 -14 7z"/>
<path d="M4391 1067 c-8 -10 -7 -14 2 -14 8 0 14 6 14 14 0 7 -1 13 -2 13 -2
0 -8 -6 -14 -13z"/>
<path d="M1436 1058 c3 -5 10 -6 15 -3 13 9 11 12 -6 12 -8 0 -12 -4 -9 -9z"/>
<path d="M4270 1039 c0 -5 5 -7 10 -4 6 3 10 8 10 11 0 2 -4 4 -10 4 -5 0 -10
-5 -10 -11z"/>
<path d="M4193 1027 c0 -8 6 -14 14 -14 9 0 10 4 2 14 -6 7 -12 13 -14 13 -1
0 -2 -6 -2 -13z"/>
<path d="M4350 1018 c0 -4 4 -8 9 -8 6 0 12 4 15 8 3 5 -1 9 -9 9 -8 0 -15 -4
-15 -9z"/>
<path d="M4294 1009 c-3 -6 -2 -15 3 -20 5 -5 9 -1 9 11 0 23 -2 24 -12 9z"/>
<path d="M4135 1000 c-2 -3 9 -6 25 -6 17 0 27 2 25 5 -8 7 -45 9 -50 1z"/>
<path d="M4260 1000 c-9 -6 -10 -10 -3 -10 6 0 15 5 18 10 8 12 4 12 -15 0z"/>
<path d="M1576 959 c4 -8 30 -6 38 2 3 3 -5 5 -19 5 -13 0 -22 -3 -19 -7z"/>
<path d="M4160 966 c0 -2 8 -10 18 -17 15 -13 16 -12 3 4 -13 16 -21 21 -21
13z"/>
<path d="M4213 955 c0 -8 4 -12 9 -9 4 3 8 9 8 15 0 5 -4 9 -8 9 -5 0 -9 -7
-9 -15z"/>
<path d="M4130 921 c0 -6 4 -13 10 -16 6 -3 7 1 4 9 -7 18 -14 21 -14 7z"/>
<path d="M1736 887 c3 -10 9 -15 12 -12 3 3 0 11 -7 18 -10 9 -11 8 -5 -6z"/>
<path d="M1770 881 c0 -6 4 -13 10 -16 6 -3 7 1 4 9 -7 18 -14 21 -14 7z"/>
<path d="M4030 879 c0 -5 5 -7 10 -4 6 3 10 8 10 11 0 2 -4 4 -10 4 -5 0 -10
-5 -10 -11z"/>
<path d="M4113 873 c0 -9 4 -10 14 -2 7 6 13 12 13 14 0 1 -6 2 -13 2 -8 0
-14 -6 -14 -14z"/>
<path d="M3916 862 c-2 -4 -1 -14 4 -22 7 -11 9 -9 7 8 -1 24 -3 26 -11 14z"/>
<path d="M3990 866 c0 -2 7 -7 16 -10 8 -3 12 -2 9 4 -6 10 -25 14 -25 6z"/>
<path d="M1810 856 c0 -2 8 -10 18 -17 15 -13 16 -12 3 4 -13 16 -21 21 -21
13z"/>
<path d="M3854 809 c-3 -6 -2 -15 3 -20 5 -5 9 -1 9 11 0 23 -2 24 -12 9z"/>
<path d="M3890 816 c0 -2 8 -10 18 -17 15 -13 16 -12 3 4 -13 16 -21 21 -21
13z"/>
<path d="M3937 813 c-10 -9 -9 -23 1 -23 5 0 9 7 9 15 0 17 -1 18 -10 8z"/>
<path d="M3976 807 c3 -10 9 -15 12 -12 3 3 0 11 -7 18 -10 9 -11 8 -5 -6z"/>
<path d="M3755 769 c-4 -6 -5 -12 -2 -15 2 -3 7 2 10 11 7 17 1 20 -8 4z"/>
<path d="M3910 762 c0 -5 7 -9 15 -9 8 0 12 4 9 9 -3 4 -9 8 -15 8 -5 0 -9 -4
-9 -8z"/>
<path d="M3769 724 c-11 -14 -24 -52 -14 -42 2 1 3 6 2 9 -1 4 7 16 17 28 11
12 17 21 14 21 -3 0 -12 -7 -19 -16z"/>
<path d="M3839 738 c-6 -20 -6 -39 0 -42 4 -3 7 6 7 20 0 20 -4 32 -7 22z"/>
<path d="M3676 673 c-6 -14 -5 -15 5 -6 7 7 10 15 7 18 -3 3 -9 -2 -12 -12z"/>
<path d="M3799 673 c-13 -16 -12 -17 4 -4 9 7 17 15 17 17 0 8 -8 3 -21 -13z"/>
<path d="M2096 662 c-3 -5 1 -9 9 -9 8 0 12 4 9 9 -3 4 -7 8 -9 8 -2 0 -6 -4
-9 -8z"/>
<path d="M3593 653 c10 -11 26 -20 35 -18 9 1 24 -3 32 -9 13 -9 13 -9 2 6 -7
9 -21 15 -30 13 -9 -1 -26 5 -37 14 -20 16 -20 16 -2 -6z"/>
<path d="M3695 631 c-3 -5 -2 -12 3 -15 5 -3 9 1 9 9 0 17 -3 19 -12 6z"/>
<path d="M2195 620 c3 -5 8 -10 11 -10 2 0 4 5 4 10 0 6 -5 10 -11 10 -5 0 -7
-4 -4 -10z"/>
<path d="M2235 600 c3 -5 8 -10 11 -10 2 0 4 5 4 10 0 6 -5 10 -11 10 -5 0 -7
-4 -4 -10z"/>
<path d="M3490 599 c0 -5 5 -7 10 -4 6 3 10 8 10 11 0 2 -4 4 -10 4 -5 0 -10
-5 -10 -11z"/>
<path d="M3636 598 c3 -5 10 -6 15 -3 13 9 11 12 -6 12 -8 0 -12 -4 -9 -9z"/>
<path d="M3610 579 c0 -5 5 -7 10 -4 6 3 10 8 10 11 0 2 -4 4 -10 4 -5 0 -10
-5 -10 -11z"/>
<path d="M3414 560 c0 -13 4 -16 10 -10 7 7 7 13 0 20 -6 6 -10 3 -10 -10z"/>
<path d="M3491 567 c-8 -10 -7 -14 2 -14 8 0 14 6 14 14 0 7 -1 13 -2 13 -2 0
-8 -6 -14 -13z"/>
<path d="M2270 559 c0 -5 5 -7 10 -4 6 3 10 8 10 11 0 2 -4 4 -10 4 -5 0 -10
-5 -10 -11z"/>
<path d="M3375 561 c-3 -5 -2 -12 3 -15 5 -3 9 1 9 9 0 17 -3 19 -12 6z"/>
<path d="M3424 502 c4 -3 14 -7 22 -8 9 -1 13 0 10 4 -4 3 -14 7 -22 8 -9 1
-13 0 -10 -4z"/>
<path d="M3295 490 c-4 -6 -12 -7 -18 -4 -7 4 -9 4 -5 -1 4 -4 3 -13 -2 -20
-7 -8 -5 -12 5 -12 8 0 13 3 10 5 -3 3 2 14 12 24 9 10 13 18 10 18 -3 0 -9
-5 -12 -10z"/>
<path d="M3390 480 c0 -5 5 -10 11 -10 5 0 7 5 4 10 -3 6 -8 10 -11 10 -2 0
-4 -4 -4 -10z"/>
<path d="M2519 447 c29 -32 28 -31 28 -12 0 8 -3 13 -5 10 -3 -3 -15 3 -26 12
-15 13 -14 10 3 -10z"/>
<path d="M3356 453 c-6 -14 -5 -15 5 -6 7 7 10 15 7 18 -3 3 -9 -2 -12 -12z"/>
<path d="M2570 416 c0 -2 8 -10 18 -17 15 -13 16 -12 3 4 -13 16 -21 21 -21
13z"/>
<path d="M3114 386 c1 -8 5 -18 8 -22 4 -3 5 1 4 10 -1 8 -5 18 -8 22 -4 3 -5
-1 -4 -10z"/>
<path d="M3160 375 c-7 -9 -11 -17 -9 -20 3 -2 10 5 17 15 14 24 10 26 -8 5z"/>
<path d="M3206 365 c-11 -8 -15 -15 -9 -15 6 0 16 7 23 15 16 19 11 19 -14 0z"/>
<path d="M3069 357 c6 -8 7 -18 3 -22 -4 -5 -1 -5 6 -1 10 6 10 11 1 22 -6 8
-14 14 -16 14 -3 0 0 -6 6 -13z"/>
<path d="M3030 356 c0 -2 8 -10 18 -17 15 -13 16 -12 3 4 -13 16 -21 21 -21
13z"/>
<path d="M2707 339 c7 -7 15 -10 18 -7 3 3 -2 9 -12 12 -14 6 -15 5 -6 -5z"/>
<path d="M3116 333 c-6 -14 -5 -15 5 -6 7 7 10 15 7 18 -3 3 -9 -2 -12 -12z"/>
<path d="M3230 346 c0 -2 7 -7 16 -10 8 -3 12 -2 9 4 -6 10 -25 14 -25 6z"/>
<path d="M2955 322 c3 -3 0 -10 -5 -17 -7 -8 -5 -12 5 -12 8 0 13 3 10 5 -3 3
0 10 5 17 7 8 5 12 -5 12 -8 0 -13 -3 -10 -5z"/>
<path d="M3130 299 c0 -5 5 -7 10 -4 6 3 10 8 10 11 0 2 -4 4 -10 4 -5 0 -10
-5 -10 -11z"/>
<path d="M2911 287 c-8 -10 -7 -14 2 -14 8 0 14 6 14 14 0 7 -1 13 -2 13 -2 0
-8 -6 -14 -13z"/>
<path d="M3038 272 c-11 -15 -11 -15 2 -6 8 6 23 10 33 8 11 -1 16 0 13 4 -13
12 -36 10 -48 -6z"/>
<path d="M2855 220 c-3 -5 -1 -10 4 -10 6 0 11 5 11 10 0 6 -2 10 -4 10 -3 0
-8 -4 -11 -10z"/>
</g>
</svg>
